<svg xmlns="http://www.w3.org/2000/svg" viewBox="0 0 900 560" role="img" aria-label="GameBear cover"><defs><linearGradient id="bg" x1="0" x2="1" y1="0" y2="1"><stop stop-color="#080816"/><stop offset=".55" stop-color="#100072"/><stop offset="1" stop-color="#5b1cff"/></linearGradient><filter id="glow"><feGaussianBlur stdDeviation="5" result="b"/><feMerge><feMergeNode in="b"/><feMergeNode in="SourceGraphic"/></feMerge></filter></defs><rect width="900" height="560" fill="url(#bg)"/><g opacity=".35" stroke="#69e7ff"><path d="M0 410H900M0 320H900M0 230H900M120 0V560M300 0V560M480 0V560M660 0V560"/></g><rect x="92" y="78" width="716" height="404" rx="24" fill="#0b0b20" stroke="#7a3cff"/><rect x="132" y="118" width="300" height="34" rx="8" fill="#69e7ff" filter="url(#glow)"/><rect x="132" y="188" width="250" height="220" rx="18" fill="#15153a"/><circle cx="257" cy="298" r="78" fill="#7a3cff"/><path d="M214 298h86M257 255v86" stroke="#69e7ff" stroke-width="22" stroke-linecap="round"/><rect x="470" y="188" width="290" height="64" rx="14" fill="#2110a2"/><rect x="470" y="280" width="220" height="34" rx="10" fill="#69e7ff"/><rect x="470" y="340" width="250" height="34" rx="10" fill="#7a3cff"/></svg>
