<svg xmlns="http://www.w3.org/2000/svg" viewBox="0 0 900 560" role="img" aria-label="SafeCore cover"><rect width="900" height="560" fill="#f7fbff"/><circle cx="770" cy="120" r="150" fill="#dff7ff"/><circle cx="120" cy="460" r="170" fill="#eeeaff"/><rect x="84" y="70" width="732" height="420" rx="22" fill="#ffffff" stroke="#d8def4"/><rect x="124" y="116" width="210" height="32" rx="8" fill="#100072"/><rect x="124" y="184" width="420" height="34" rx="8" fill="#182a5e"/><rect x="124" y="240" width="550" height="18" rx="9" fill="#ccd7f1"/><rect x="124" y="278" width="500" height="18" rx="9" fill="#ccd7f1"/><rect x="124" y="340" width="190" height="92" rx="14" fill="#eef6ff"/><rect x="348" y="340" width="190" height="92" rx="14" fill="#eef6ff"/><rect x="572" y="340" width="190" height="92" rx="14" fill="#eef6ff"/><path d="M668 152v-20c0-28 20-48 48-48s48 20 48 48v20" fill="none" stroke="#100072" stroke-width="16"/><rect x="642" y="150" width="148" height="112" rx="24" fill="#100072"/><circle cx="716" cy="202" r="14" fill="#5ce1e6"/></svg>
