<svg xmlns="http://www.w3.org/2000/svg" viewBox="0 0 900 560" role="img" aria-label="Shield Woman cover"><defs><linearGradient id="sw" x1="0" x2="1" y1="0" y2="1"><stop stop-color="#ffffff"/><stop offset=".55" stop-color="#f4efff"/><stop offset="1" stop-color="#100072"/></linearGradient></defs><rect width="900" height="560" fill="url(#sw)"/><rect x="86" y="76" width="728" height="408" rx="24" fill="rgba(255,255,255,.82)" stroke="#ded4ff"/><rect x="128" y="124" width="240" height="34" rx="8" fill="#100072"/><rect x="128" y="190" width="170" height="220" rx="18" fill="#160d28"/><rect x="332" y="190" width="170" height="220" rx="18" fill="#ffffff" stroke="#ded4ff"/><rect x="536" y="190" width="170" height="220" rx="18" fill="#160d28"/><path d="M213 224l52 18v36c0 34-20 56-52 70-32-14-52-36-52-70v-36l52-18Z" fill="#9b4dff"/><circle cx="417" cy="282" r="52" fill="#100072"/><path d="M417 334v42M390 354h54" stroke="#100072" stroke-width="16" stroke-linecap="round"/><path d="M621 224l52 18v36c0 34-20 56-52 70-32-14-52-36-52-70v-36l52-18Z" fill="#ffffff"/></svg>
